<?xml version="1.0" encoding="iso-8859-1"?>
<!-- Generator: Adobe Illustrator 19.0.0, SVG Export Plug-In . SVG Version: 6.00 Build 0)  -->
<svg version="1.1" id="Capa_1" xmlns="http://www.w3.org/2000/svg" xmlns:xlink="http://www.w3.org/1999/xlink" x="0px" y="0px"
	 viewBox="0 0 512 512" style="enable-background:new 0 0 512 512;" xml:space="preserve">
<g>
	<g>
		<path d="M377,0h-30c-8.291,0-15,6.709-15,15s6.709,15,15,15h15v15c0,8.291,6.709,15,15,15c8.291,0,15-6.709,15-15V15
			C392,6.709,385.291,0,377,0z"/>
	</g>
</g>
<g>
	<g>
		<path d="M287,0h-60c-8.291,0-15,6.709-15,15s6.709,15,15,15h60c8.291,0,15-6.709,15-15S295.291,0,287,0z"/>
	</g>
</g>
<g>
	<g>
		<path d="M167,0h-62c-8.291,0-15,6.709-15,15s6.709,15,15,15h62c8.291,0,15-6.709,15-15S175.291,0,167,0z"/>
	</g>
</g>
<g>
	<g>
		<path d="M407,482h-60c-8.291,0-15,6.709-15,15c0,8.291,6.709,15,15,15h60c8.291,0,15-6.709,15-15C422,488.709,415.291,482,407,482
			z"/>
	</g>
</g>
<g>
	<g>
		<path d="M287,482h-60c-8.291,0-15,6.709-15,15c0,8.291,6.709,15,15,15h60c8.291,0,15-6.709,15-15C302,488.709,295.291,482,287,482
			z"/>
	</g>
</g>
<g>
	<g>
		<path d="M45,0H15C6.709,0,0,6.709,0,15v30c0,8.291,6.709,15,15,15s15-6.709,15-15V30h15c8.291,0,15-6.709,15-15S53.291,0,45,0z"/>
	</g>
</g>
<g>
	<g>
		<path d="M15,90c-8.291,0-15,6.709-15,15v62c0,8.291,6.709,15,15,15s15-6.709,15-15v-62C30,96.709,23.291,90,15,90z"/>
	</g>
</g>
<g>
	<g>
		<path d="M15,212c-8.291,0-15,6.709-15,15v60c0,8.291,6.709,15,15,15s15-6.709,15-15v-60C30,218.709,23.291,212,15,212z"/>
	</g>
</g>
<g>
	<g>
		<path d="M497,212c-8.291,0-15,6.709-15,15v60c0,8.291,6.709,15,15,15c8.291,0,15-6.709,15-15v-60C512,218.709,505.291,212,497,212
			z"/>
	</g>
</g>
<g>
	<g>
		<path d="M497,332c-8.291,0-15,6.709-15,15v60c0,8.291,6.709,15,15,15c8.291,0,15-6.709,15-15v-60C512,338.709,505.291,332,497,332
			z"/>
	</g>
</g>
<g>
	<g>
		<path d="M45,362H30v-15c0-8.291-6.709-15-15-15s-15,6.709-15,15v30c0,8.291,6.709,15,15,15h30c8.291,0,15-6.709,15-15
			C60,368.709,53.291,362,45,362z"/>
	</g>
</g>
<g>
	<g>
		<path d="M167,482h-15v-15c0-8.291-6.709-15-15-15s-15,6.709-15,15v30c0,8.291,6.709,15,15,15h30c8.291,0,15-6.709,15-15
			C182,488.709,175.291,482,167,482z"/>
	</g>
</g>
<g>
	<g>
		<path d="M497,122h-30c-8.291,0-15,6.709-15,15s6.709,15,15,15h15v15c0,8.291,6.709,15,15,15c8.291,0,15-6.709,15-15v-30
			C512,128.709,505.291,122,497,122z"/>
	</g>
</g>
<g>
	<g>
		<path d="M497,452c-8.291,0-15,6.709-15,15v15h-15c-8.291,0-15,6.709-15,15c0,8.291,6.709,15,15,15h30c8.291,0,15-6.709,15-15v-30
			C512,458.709,505.291,452,497,452z"/>
	</g>
</g>
<g>
	<g>
		<path d="M407,122h-15v-17c0-8.291-6.709-15-15-15c-8.291,0-15,6.709-15,15v17H137c-8.291,0-15,6.709-15,15v225h-17
			c-8.291,0-15,6.709-15,15c0,8.291,6.709,15,15,15h17v15c0,8.291,6.709,15,15,15s15-6.709,15-15v-15h225c8.291,0,15-6.709,15-15
			V152h15c8.291,0,15-6.709,15-15S415.291,122,407,122z"/>
	</g>
</g>
<g>
</g>
<g>
</g>
<g>
</g>
<g>
</g>
<g>
</g>
<g>
</g>
<g>
</g>
<g>
</g>
<g>
</g>
<g>
</g>
<g>
</g>
<g>
</g>
<g>
</g>
<g>
</g>
<g>
</g>
</svg>
